<svg t="1688439890077" class="icon" viewBox="0 0 1024 1024" version="1.1" xmlns="http://www.w3.org/2000/svg" p-id="1696" xmlns:xlink="http://www.w3.org/1999/xlink" width="200" height="200"><path d="M682.65984 42.65984l170.65984 0q53.00224 0 90.50112 37.49888t37.49888 90.50112l0 682.65984q0 53.00224-37.49888 90.50112t-90.50112 37.49888l-170.65984 0q-53.00224 0-90.50112-37.49888t-37.49888-90.50112l0-682.65984q0-53.00224 37.49888-90.50112t90.50112-37.49888zM170.65984 554.65984l170.65984 0q53.00224 0 90.50112 37.49888t37.49888 90.50112l0 170.65984q0 53.00224-37.49888 90.50112t-90.50112 37.49888l-170.65984 0q-53.00224 0-90.50112-37.49888t-37.49888-90.50112l0-170.65984q0-53.00224 37.49888-90.50112t90.50112-37.49888zM341.34016 640l-170.65984 0q-17.67424 0-30.16704 12.4928t-12.4928 30.16704l0 170.65984q0 17.67424 12.4928 30.16704t30.16704 12.4928l170.65984 0q17.67424 0 30.16704-12.4928t12.4928-30.16704l0-170.65984q0-17.67424-12.4928-30.16704t-30.16704-12.4928zM170.65984 42.65984l170.65984 0q53.00224 0 90.50112 37.49888t37.49888 90.50112l0 170.65984q0 53.00224-37.49888 90.50112t-90.50112 37.49888l-170.65984 0q-53.00224 0-90.50112-37.49888t-37.49888-90.50112l0-170.65984q0-53.00224 37.49888-90.50112t90.50112-37.49888zM341.34016 128l-170.65984 0q-17.67424 0-30.16704 12.4928t-12.4928 30.16704l0 170.65984q0 17.67424 12.4928 30.16704t30.16704 12.4928l170.65984 0q17.67424 0 30.16704-12.4928t12.4928-30.16704l0-170.65984q0-17.67424-12.4928-30.16704t-30.16704-12.4928zM853.34016 128l-170.65984 0q-17.67424 0-30.16704 12.4928t-12.4928 30.16704l0 682.65984q0 17.67424 12.4928 30.16704t30.16704 12.4928l170.65984 0q17.67424 0 30.16704-12.4928t12.4928-30.16704l0-682.65984q0-17.67424-12.4928-30.16704t-30.16704-12.4928z" fill="currentColor" p-id="1697"></path></svg>
